<svg aria-hidden="true" style="position: absolute; width: 0; height: 0; overflow: hidden;" version="1.1" xmlns="http://www.w3.org/2000/svg" xmlns:xlink="http://www.w3.org/1999/xlink">
<defs>
<symbol id="icon-Arrow1" viewBox="0 0 53 32">
<path d="M51.944 17.542c0.815-0.815 0.815-2.136 0-2.951l-13.281-13.281c-0.815-0.815-2.136-0.815-2.951 0s-0.815 2.136 0 2.951l11.806 11.806-11.806 11.805c-0.815 0.815-0.815 2.136 0 2.951s2.136 0.815 2.951 0l13.281-13.281zM0.973 18.153h49.495v-4.174h-49.495v4.174z"></path>
</symbol>
<symbol id="icon-iconFB" viewBox="0 0 18 32">
<path d="M16.649 0.007l-4.15-0.007c-4.662 0-7.675 3.091-7.675 7.875v3.631h-4.172c-0.361 0-0.652 0.292-0.652 0.653v5.261c0 0.361 0.292 0.652 0.652 0.652h4.172v13.275c0 0.361 0.292 0.652 0.652 0.652h5.444c0.361 0 0.652-0.292 0.652-0.652v-13.275h4.878c0.361 0 0.652-0.292 0.652-0.652l0.002-5.261c0-0.173-0.069-0.339-0.191-0.461s-0.289-0.191-0.462-0.191h-4.88v-3.078c0-1.479 0.353-2.23 2.28-2.23l2.795-0.001c0.36 0 0.652-0.292 0.652-0.652v-4.885c0-0.36-0.292-0.652-0.651-0.652z"></path>
</symbol>
<symbol id="icon-iconLogoDark" viewBox="0 0 146 32">
<path fill="#333" style="fill: var(--color2, #333)" d="M6.893 0.35h6.615v1.767h-2.196v25.040h-1.97v-25.040h-2.449v-1.767z"></path>
<path fill="#333" style="fill: var(--color2, #333)" d="M22.936 4.036c0.035 0 0.053 0.162 0.053 0.487s-0.004 0.65-0.013 0.975v0.472c-0.701 0-1.322 0.162-1.863 0.487-0.532 0.315-1.056 0.888-1.57 1.721v18.978h-1.983v-22.847h1.983v2.544c0.231-0.894 0.634-1.584 1.211-2.071 0.586-0.498 1.313-0.746 2.183-0.746z"></path>
<path fill="#333" style="fill: var(--color2, #333)" d="M27.161 4.31h1.996v22.847h-1.996v-22.847zM27.161 0.015h1.983v2.193h-1.983v-2.193z"></path>
<path fill="#333" style="fill: var(--color2, #333)" d="M40.609 10.997c0-1.787-0.067-2.899-0.2-3.336-0.124-0.447-0.275-0.828-0.452-1.142s-0.47-0.472-0.878-0.472c-0.408 0-0.71 0.030-0.905 0.091-0.479 0.152-0.83 0.594-1.052 1.325-0.222 0.721-0.333 1.909-0.333 3.564v9.078c0 1.939 0.133 3.31 0.399 4.112 0.275 0.792 0.79 1.188 1.544 1.188s1.256-0.396 1.504-1.188c0.248-0.792 0.373-2.188 0.373-4.189v-9.032zM36.789 6.062c0.47-1.279 1.353-1.919 2.649-1.919 0.905 0 1.584 0.345 2.036 1.036 0.461 0.68 0.763 1.564 0.905 2.65 0.142 1.076 0.213 2.376 0.213 3.899v8.194c0 0.030 0 0.066 0 0.107 0 2.874-0.328 4.828-0.985 5.864-0.657 1.026-1.553 1.538-2.689 1.538-0.452 0-0.878-0.183-1.278-0.548-0.39-0.376-0.674-0.833-0.852-1.371v5.681h-1.983v-26.883h1.983v1.752z"></path>
<path fill="#333" style="fill: var(--color2, #333)" d="M55.806 4.585l0.013 0.625c0 1.097 0.497 3.046 1.491 5.849 0.683-0.975 1.207-1.929 1.571-2.863 0.373-0.944 0.559-1.995 0.559-3.153s-0.111-1.98-0.333-2.467c-0.222-0.498-0.745-0.746-1.57-0.746-1.074 0-1.642 0.706-1.704 2.117-0.009 0.223-0.018 0.371-0.027 0.442 0 0.061 0 0.127 0 0.198zM61.529 21.598c1.26 3.026 2.023 4.879 2.289 5.559h-1.65c-0.231-0.63-0.701-1.777-1.411-3.442-0.444 1.147-0.901 1.97-1.371 2.467s-0.941 0.833-1.411 1.005c-0.461 0.183-0.994 0.274-1.597 0.274-1.207 0-2.183-0.477-2.928-1.432s-1.118-2.264-1.118-3.93c0-1.665 0.146-2.899 0.439-3.701 0.302-0.802 0.586-1.508 0.852-2.117s1.091-1.807 2.476-3.595c-1.482-3.798-2.223-6.301-2.223-7.509 0-3.442 1.269-5.163 3.807-5.163 1.482 0 2.453 0.447 2.915 1.34 0.47 0.894 0.705 2.143 0.705 3.747s-0.31 3.006-0.932 4.204c-0.612 1.188-1.384 2.442-2.316 3.762 0.63 1.665 1.477 3.757 2.542 6.275 0.719-1.726 1.508-3.168 2.369-4.326l0.918 1.63c-0.799 1.137-1.584 2.787-2.356 4.95zM59.772 21.43c-1.295-2.985-2.249-5.224-2.862-6.717-0.745 1.137-1.358 2.29-1.837 3.458s-0.723 2.503-0.732 4.006c0 2.254 0.759 3.381 2.276 3.381 0.834 0 1.535-0.558 2.103-1.675 0.284-0.579 0.634-1.396 1.051-2.452z"></path>
<path fill="#333" style="fill: var(--color2, #333)" d="M82.542 0.35h2.223v26.807h-1.797v-11.484l0.306-10.799-3.341 21.705h-1.89l-3.46-21.705 0.306 10.799v11.484h-1.81v-26.807h2.223l3.687 22.512 3.554-22.512z"></path>
<path fill="#333" style="fill: var(--color2, #333)" d="M90.414 4.31h1.997v22.847h-1.997v-22.847zM90.414 0.015h1.983v2.193h-1.983v-2.193z"></path>
<path fill="#333" style="fill: var(--color2, #333)" d="M100.042 6.549c0.177-0.68 0.568-1.269 1.171-1.767 0.613-0.508 1.331-0.762 2.156-0.762s1.504 0.391 2.037 1.173c0.532 0.782 0.798 1.955 0.798 3.518v18.445h-1.983v-18.628c0-0.883-0.177-1.518-0.532-1.904-0.347-0.396-0.812-0.594-1.398-0.594-1.499 0-2.249 0.848-2.249 2.544v18.582h-1.983v-22.847h1.983v2.239z"></path>
<path fill="#333" style="fill: var(--color2, #333)" d="M117.11 11.363c0-1.96-0.133-3.331-0.399-4.112-0.258-0.792-0.763-1.188-1.518-1.188s-1.26 0.406-1.517 1.218c-0.258 0.802-0.387 2.198-0.387 4.189v9.047c0 2.092 0.143 3.432 0.426 4.021 0.293 0.589 0.723 0.883 1.291 0.883s0.972-0.117 1.211-0.35c0.249-0.244 0.457-0.645 0.625-1.203 0.177-0.569 0.266-1.676 0.266-3.32v-9.184zM117.097 0h1.996v27.157h-1.996v-1.736c-0.462 1.269-1.345 1.904-2.649 1.904-1.482-0.010-2.423-1.021-2.822-3.031-0.222-1.107-0.333-2.594-0.333-4.463v-8.027c0-3.067 0.319-5.128 0.958-6.184 0.647-1.056 1.557-1.584 2.728-1.584 0.453 0 0.87 0.188 1.252 0.564 0.39 0.366 0.678 0.812 0.865 1.34v-5.94z"></path>
<path fill="#efc224" style="fill: var(--color3, #efc224)" d="M140.237 7.328l5.783 6.617c0.355 0.406 0.355 1.065 0 1.471l-5.783 6.617c-0.355 0.406-0.93 0.406-1.285 0s-0.355-1.064 0-1.471l4.231-4.842h-15.979v-2.080h15.979l-4.231-4.842c-0.355-0.406-0.355-1.064 0-1.47s0.93-0.406 1.285 0z"></path>
<path fill="#efc224" style="fill: var(--color3, #efc224)" d="M3.634 13.64h-3.634v2.080h3.634v-2.080z"></path>
</symbol>
<symbol id="icon-iconLogoWhite" viewBox="0 0 146 32">
<path fill="#fff" style="fill: var(--color1, #fff)" d="M6.893 0.35h6.615v1.767h-2.196v25.040h-1.97v-25.040h-2.449v-1.767z"></path>
<path fill="#fff" style="fill: var(--color1, #fff)" d="M22.936 4.036c0.035 0 0.053 0.162 0.053 0.487s-0.004 0.65-0.013 0.975v0.472c-0.701 0-1.322 0.162-1.863 0.487-0.532 0.315-1.056 0.888-1.57 1.721v18.978h-1.983v-22.847h1.983v2.544c0.231-0.894 0.634-1.584 1.211-2.071 0.586-0.498 1.313-0.746 2.183-0.746z"></path>
<path fill="#fff" style="fill: var(--color1, #fff)" d="M27.161 4.31h1.996v22.847h-1.996v-22.847zM27.161 0.015h1.983v2.193h-1.983v-2.193z"></path>
<path fill="#fff" style="fill: var(--color1, #fff)" d="M40.609 10.997c0-1.787-0.067-2.899-0.2-3.336-0.124-0.447-0.275-0.828-0.452-1.142s-0.47-0.472-0.878-0.472c-0.408 0-0.71 0.030-0.905 0.091-0.479 0.152-0.83 0.594-1.052 1.325-0.222 0.721-0.333 1.909-0.333 3.564v9.078c0 1.939 0.133 3.31 0.399 4.112 0.275 0.792 0.79 1.188 1.544 1.188s1.256-0.396 1.504-1.188c0.248-0.792 0.373-2.188 0.373-4.189v-9.032zM36.789 6.062c0.47-1.279 1.353-1.919 2.649-1.919 0.905 0 1.584 0.345 2.036 1.036 0.461 0.68 0.763 1.564 0.905 2.65 0.142 1.076 0.213 2.376 0.213 3.899v8.194c0 0.030 0 0.066 0 0.107 0 2.874-0.328 4.828-0.985 5.864-0.657 1.026-1.553 1.538-2.689 1.538-0.452 0-0.878-0.183-1.278-0.548-0.39-0.376-0.674-0.833-0.852-1.371v5.681h-1.983v-26.883h1.983v1.752z"></path>
<path fill="#fff" style="fill: var(--color1, #fff)" d="M55.806 4.585l0.013 0.625c0 1.097 0.497 3.046 1.491 5.849 0.683-0.975 1.207-1.929 1.571-2.863 0.373-0.944 0.559-1.995 0.559-3.153s-0.111-1.98-0.333-2.467c-0.222-0.498-0.745-0.746-1.57-0.746-1.074 0-1.642 0.706-1.704 2.117-0.009 0.223-0.018 0.371-0.027 0.442 0 0.061 0 0.127 0 0.198zM61.529 21.598c1.26 3.026 2.023 4.879 2.289 5.559h-1.65c-0.231-0.63-0.701-1.777-1.411-3.442-0.444 1.147-0.901 1.97-1.371 2.467s-0.941 0.833-1.411 1.005c-0.461 0.183-0.994 0.274-1.597 0.274-1.207 0-2.183-0.477-2.928-1.432s-1.118-2.264-1.118-3.93c0-1.665 0.146-2.899 0.439-3.701 0.302-0.802 0.586-1.508 0.852-2.117s1.091-1.807 2.476-3.595c-1.482-3.798-2.223-6.301-2.223-7.509 0-3.442 1.269-5.163 3.807-5.163 1.482 0 2.453 0.447 2.915 1.34 0.47 0.894 0.705 2.143 0.705 3.747s-0.31 3.006-0.932 4.204c-0.612 1.188-1.384 2.442-2.316 3.762 0.63 1.665 1.477 3.757 2.542 6.275 0.719-1.726 1.508-3.168 2.369-4.326l0.918 1.63c-0.799 1.137-1.584 2.787-2.356 4.95zM59.772 21.43c-1.295-2.985-2.249-5.224-2.862-6.717-0.745 1.137-1.358 2.29-1.837 3.458s-0.723 2.503-0.732 4.006c0 2.254 0.759 3.381 2.276 3.381 0.834 0 1.535-0.558 2.103-1.675 0.284-0.579 0.634-1.396 1.051-2.452z"></path>
<path fill="#fff" style="fill: var(--color1, #fff)" d="M82.542 0.35h2.223v26.807h-1.797v-11.484l0.306-10.799-3.341 21.705h-1.89l-3.46-21.705 0.306 10.799v11.484h-1.81v-26.807h2.223l3.687 22.512 3.554-22.512z"></path>
<path fill="#fff" style="fill: var(--color1, #fff)" d="M90.414 4.31h1.997v22.847h-1.997v-22.847zM90.414 0.015h1.983v2.193h-1.983v-2.193z"></path>
<path fill="#fff" style="fill: var(--color1, #fff)" d="M100.042 6.549c0.177-0.68 0.568-1.269 1.171-1.767 0.613-0.508 1.331-0.762 2.156-0.762s1.504 0.391 2.037 1.173c0.532 0.782 0.798 1.955 0.798 3.518v18.445h-1.983v-18.628c0-0.883-0.177-1.518-0.532-1.904-0.347-0.396-0.812-0.594-1.398-0.594-1.499 0-2.249 0.848-2.249 2.544v18.582h-1.983v-22.847h1.983v2.239z"></path>
<path fill="#fff" style="fill: var(--color1, #fff)" d="M117.11 11.363c0-1.96-0.133-3.331-0.399-4.112-0.258-0.792-0.763-1.188-1.518-1.188s-1.26 0.406-1.517 1.218c-0.258 0.802-0.387 2.198-0.387 4.189v9.047c0 2.092 0.143 3.432 0.426 4.021 0.293 0.589 0.723 0.883 1.291 0.883s0.972-0.117 1.211-0.35c0.249-0.244 0.457-0.645 0.625-1.203 0.177-0.569 0.266-1.676 0.266-3.32v-9.184zM117.097 0h1.996v27.157h-1.996v-1.736c-0.462 1.269-1.345 1.904-2.649 1.904-1.482-0.010-2.423-1.021-2.822-3.031-0.222-1.107-0.333-2.594-0.333-4.463v-8.027c0-3.067 0.319-5.128 0.958-6.184 0.647-1.056 1.557-1.584 2.728-1.584 0.453 0 0.87 0.188 1.252 0.564 0.39 0.366 0.678 0.812 0.865 1.34v-5.94z"></path>
<path fill="#efc224" style="fill: var(--color3, #efc224)" d="M140.237 7.327l5.783 6.617c0.355 0.406 0.355 1.064 0 1.471l-5.783 6.617c-0.355 0.406-0.93 0.406-1.285 0s-0.355-1.064 0-1.47l4.231-4.842h-15.979v-2.080h15.979l-4.231-4.842c-0.355-0.406-0.355-1.064 0-1.47s0.93-0.406 1.285 0z"></path>
<path fill="#efc224" style="fill: var(--color3, #efc224)" d="M3.634 13.64h-3.634v2.080h3.634v-2.080z"></path>
</symbol>
<symbol id="icon-iconPlay" viewBox="0 0 32 32">
<path stroke-width="0.8533" stroke-miterlimit="4" stroke-linecap="butt" stroke-linejoin="miter" style="stroke: var(--color1, #fff)" d="M31.573 16c0 8.601-6.972 15.573-15.573 15.573s-15.573-6.972-15.573-15.573c0-8.601 6.972-15.573 15.573-15.573s15.573 6.972 15.573 15.573z"></path>
<path stroke-width="0.8533" stroke-miterlimit="4" stroke-linecap="butt" stroke-linejoin="miter" style="stroke: var(--color1, #fff)" d="M13.76 12.12l6.72 3.88-6.72 3.88v-7.76z"></path>
</symbol>
<symbol id="icon-iconTwitter" viewBox="0 0 41 32">
<path d="M39.96 3.704c-1.511 0.65-3.022 1.056-4.532 1.219 1.705-1.023 2.859-2.469 3.46-4.337-1.56 0.926-3.225 1.559-4.995 1.9-1.56-1.657-3.476-2.486-5.751-2.486-2.176 0-4.032 0.767-5.568 2.303-1.535 1.535-2.302 3.391-2.302 5.567 0 0.585 0.065 1.186 0.195 1.803-3.216-0.162-6.233-0.97-9.052-2.424s-5.21-3.391-7.176-5.811c-0.715 1.218-1.072 2.542-1.072 3.971 0 1.348 0.317 2.599 0.951 3.752s1.486 2.087 2.559 2.802c-1.267-0.049-2.453-0.382-3.557-0.999v0.097c0 1.901 0.597 3.569 1.791 5.007s2.701 2.343 4.52 2.717c-0.682 0.178-1.373 0.268-2.071 0.268-0.455 0-0.95-0.041-1.486-0.121 0.503 1.575 1.429 2.87 2.777 3.886s2.875 1.538 4.581 1.572c-2.859 2.241-6.116 3.362-9.77 3.362-0.699 0-1.332-0.032-1.901-0.097 3.655 2.355 7.683 3.533 12.085 3.533 2.794 0 5.417-0.442 7.869-1.328 2.453-0.885 4.548-2.071 6.287-3.558s3.236-3.196 4.495-5.129c1.259-1.933 2.196-3.951 2.814-6.055s0.926-4.211 0.926-6.323c0-0.455-0.008-0.796-0.025-1.023 1.544-1.12 2.859-2.477 3.948-4.068z"></path>
</symbol>
<symbol id="icon-iconVK" viewBox="0 0 53 32">
<path d="M53.051 27.481c-0.065-0.139-0.125-0.255-0.181-0.347-0.925-1.666-2.694-3.712-5.304-6.137l-0.055-0.056-0.027-0.027-0.028-0.028h-0.028c-1.185-1.129-1.935-1.889-2.249-2.277-0.575-0.741-0.703-1.49-0.389-2.25 0.222-0.574 1.056-1.786 2.499-3.637 0.759-0.981 1.361-1.768 1.805-2.36 3.203-4.258 4.591-6.979 4.165-8.164l-0.165-0.277c-0.111-0.167-0.398-0.319-0.861-0.458s-1.055-0.162-1.778-0.069l-7.997 0.055c-0.13-0.046-0.315-0.042-0.555 0.014s-0.361 0.084-0.361 0.084l-0.139 0.070-0.11 0.084c-0.093 0.055-0.194 0.152-0.306 0.291s-0.203 0.301-0.277 0.486c-0.871 2.24-1.861 4.323-2.971 6.248-0.685 1.148-1.314 2.143-1.889 2.985s-1.055 1.462-1.444 1.86c-0.389 0.398-0.74 0.717-1.055 0.958s-0.555 0.343-0.722 0.306-0.324-0.074-0.473-0.111c-0.259-0.167-0.467-0.393-0.624-0.68s-0.264-0.648-0.319-1.083c-0.055-0.435-0.088-0.81-0.097-1.125s-0.005-0.759 0.014-1.333c0.019-0.574 0.028-0.963 0.028-1.166 0-0.704 0.014-1.467 0.041-2.291s0.051-1.476 0.070-1.957c0.019-0.481 0.028-0.991 0.028-1.527s-0.033-0.958-0.097-1.264c-0.064-0.305-0.162-0.601-0.291-0.889s-0.32-0.509-0.569-0.666c-0.25-0.157-0.561-0.282-0.93-0.375-0.981-0.222-2.231-0.342-3.749-0.361-3.443-0.037-5.655 0.185-6.637 0.667-0.389 0.203-0.741 0.481-1.055 0.833-0.333 0.407-0.38 0.63-0.139 0.666 1.111 0.166 1.897 0.564 2.36 1.194l0.167 0.334c0.13 0.241 0.259 0.667 0.389 1.277s0.213 1.286 0.25 2.027c0.092 1.352 0.092 2.509 0 3.471s-0.18 1.712-0.264 2.249-0.208 0.972-0.375 1.305c-0.167 0.333-0.278 0.537-0.333 0.611s-0.102 0.12-0.139 0.139c-0.241 0.092-0.491 0.139-0.75 0.139s-0.574-0.13-0.944-0.389c-0.37-0.259-0.754-0.615-1.152-1.069s-0.847-1.088-1.347-1.902c-0.5-0.814-1.018-1.777-1.555-2.888l-0.444-0.806c-0.278-0.518-0.657-1.273-1.138-2.263s-0.907-1.949-1.277-2.874c-0.148-0.389-0.37-0.685-0.666-0.888l-0.139-0.084c-0.092-0.074-0.241-0.152-0.444-0.236s-0.416-0.143-0.639-0.18l-7.609 0.055c-0.777 0-1.305 0.176-1.583 0.528l-0.111 0.166c-0.056 0.093-0.084 0.241-0.084 0.444s0.056 0.454 0.167 0.75c1.111 2.61 2.319 5.128 3.624 7.553s2.439 4.379 3.401 5.859c0.963 1.481 1.944 2.879 2.944 4.193s1.662 2.157 1.985 2.527c0.324 0.371 0.579 0.648 0.764 0.833l0.694 0.666c0.444 0.444 1.097 0.977 1.958 1.597s1.814 1.231 2.86 1.833c1.046 0.601 2.263 1.092 3.652 1.471s2.74 0.532 4.054 0.459h3.194c0.647-0.056 1.138-0.259 1.472-0.611l0.11-0.139c0.074-0.111 0.144-0.282 0.208-0.513 0.065-0.231 0.097-0.486 0.097-0.763-0.019-0.796 0.042-1.513 0.18-2.152s0.296-1.12 0.473-1.444c0.176-0.324 0.375-0.597 0.597-0.819s0.38-0.357 0.473-0.403c0.092-0.047 0.166-0.078 0.221-0.097 0.444-0.148 0.967-0.005 1.569 0.431s1.166 0.972 1.694 1.611c0.528 0.639 1.162 1.356 1.902 2.152s1.389 1.388 1.944 1.777l0.555 0.333c0.371 0.222 0.852 0.426 1.445 0.611 0.591 0.185 1.11 0.231 1.554 0.139l7.109-0.111c0.703 0 1.25-0.117 1.638-0.347 0.389-0.231 0.62-0.486 0.694-0.763s0.078-0.593 0.014-0.945c-0.066-0.351-0.131-0.597-0.195-0.735z"></path>
</symbol>
<symbol id="icon-iconYouTube" viewBox="0 0 43 32">
<path d="M41.736 2.624c-1.568-1.863-4.462-2.624-9.989-2.624h-20.065c-5.654 0-8.597 0.809-10.159 2.793-1.523 1.934-1.523 4.784-1.523 8.729v7.518c0 7.642 1.807 11.522 11.682 11.522h20.065c4.793 0 7.45-0.671 9.168-2.315 1.762-1.686 2.514-4.44 2.514-9.207v-7.518c0-4.16-0.118-7.027-1.693-8.898zM27.881 16.319l-9.111 4.762c-0.204 0.106-0.426 0.159-0.649 0.159-0.252 0-0.503-0.068-0.726-0.203-0.419-0.254-0.675-0.708-0.675-1.198v-9.493c0-0.489 0.255-0.943 0.674-1.197s0.939-0.271 1.373-0.046l9.111 4.731c0.464 0.241 0.755 0.719 0.755 1.241s-0.289 1.002-0.752 1.244z"></path>
</symbol>
</defs>
</svg>
